<!-- <svg width="1121" height="730" viewBox="0 0 1121 739" fill="none" xmlns="http://www.w3.org/2000/svg">
    <path d="M13.936 238.855C38.1931 263.112 70.979 278.48 101.908 292.117C130.437 304.695 162.945 311.716 194.219 311.716C223.988 311.716 251.83 300.543 276.431 284.412C309.793 262.535 333.497 229.602 366.123 207.212C386.118 193.49 409.613 188.795 433.898 190.679C451.654 192.057 469.137 197.703 484.766 206.09C511.007 220.17 538.615 231.349 566.753 240.949C602.451 253.128 635.7 264.703 673.876 264.438C706.593 264.211 737.275 255.499 761.848 233.244C824.387 176.605 834.394 82.8796 902.932 30.7439C929.81 10.2985 963.049 1.86877 996.215 1.86877C1019.78 1.86877 1040.92 5.08702 1060.47 18.6254C1094.2 41.9748 1105.71 81.2515 1114.04 119.314C1120.19 147.44 1120.11 179.521 1117.78 208.184C1116.41 224.936 1111.52 240.922 1106.85 256.958C1100.23 279.722 1092.54 299.506 1077.83 318.523C1028.01 382.941 944.147 417.861 906.373 491.55C893.483 516.697 891.885 548.725 901.286 575.333C910.246 600.69 927.216 624.296 928.142 652.084C928.852 673.394 918.124 691.557 902.483 705.421C892.179 714.554 880.223 721.049 868.521 728.162C851.25 738.66 831.642 738.363 812.118 736.016C772.839 731.295 739.603 704.152 712.625 676.845C696.317 660.337 679.058 644.426 663.553 627.173C645.734 607.347 627.898 587.354 608.944 568.6C573.024 533.06 525.781 504.271 476.238 492.896C455.275 488.083 432.214 482.815 411.157 490.054C395.258 495.519 382.041 507.406 367.47 515.189C344.262 527.583 321.915 540.092 296.03 546.458C266.225 553.787 233.49 551.892 203.121 550.572C165.381 548.931 134.897 535.681 100.561 521.023C74.4237 509.865 48.2627 496.674 23.586 482.573C16.4799 478.512 8.75188 472.575 1.81738 469.108" stroke="white" stroke-width="1.5" stroke-linecap="round" stroke-dasharray="3 5"/>
    </svg> -->


<svg width="2190" height="977" viewBox="0 0 2190 977" fill="none" xmlns="http://www.w3.org/2000/svg">
    <path d="M86.77 493.673C112.396 507.472 136.548 522.871 163.814 533.627C215.92 554.183 268.757 561.673 324.491 562.698C393.226 563.962 462.028 559.901 528.701 542.219C603.074 522.496 683.855 500.45 747.519 455.867C801.515 418.054 854.161 366.416 894.448 314.38C917.79 284.229 934.561 251.349 941.992 213.85C952.467 160.987 945.316 105.894 879.268 107.448C806.695 109.156 750.301 168.179 723.174 231.034C702.759 278.338 692.998 338.869 717.16 386.412C769.347 489.104 909.107 516.949 1013.59 497.11C1090.07 482.589 1162.11 445.068 1225.54 400.876C1282.12 361.449 1337.19 320.534 1387.65 273.423C1434.34 229.827 1482.31 188.15 1527.7 143.106C1590.06 81.2321 1668.23 38.6781 1753.39 17.229C1813.06 2.20051 1874.7 -1.42082 1935.84 4.05413C1963.69 6.54814 1995.48 16.9623 2016.32 36.1321C2067.01 82.7713 2048.97 166.809 2035.51 225.879C2017.29 305.83 1985.78 386.273 2031.5 462.741C2058.04 507.132 2100.04 540.779 2130.31 582.46C2144.73 602.316 2160.36 624.32 2170.84 646.616C2185.63 678.118 2186.6 712.806 2187.45 747.003C2188.4 785.626 2182.57 830.127 2158.81 862.283C2142.55 884.277 2116.37 901.266 2092.5 913.551C2049.61 935.633 2003.24 953.266 1955.03 958.517C1882.44 966.422 1805.77 930.169 1747.09 890.351C1678.33 843.694 1616.4 792.098 1535.43 767.481C1486.35 752.558 1428.21 751.442 1377.05 751.442C1315.84 751.442 1250.7 775.658 1194.61 798.414C1155.46 814.294 1118.91 836.645 1080.61 854.55C1045.56 870.938 1010.29 886.494 974.643 901.521C907.342 929.893 840.975 964.165 767.138 971.549C715.755 976.687 657.784 976.795 607.178 966.537C518.716 948.605 442.128 910.048 362.727 868.011C265.396 816.484 169.611 765.7 84.6219 694.876C60.3571 674.656 38.8915 651.201 15.7402 629.718C10.9171 625.242 1.70605 619.585 1.70605 612.247" stroke="white" stroke-width="1" stroke-linecap="round" stroke-dasharray="3 5"/>
    </svg>
                
    